<svg width="21" height="21" viewBox="0 0 21 21" fill="none" xmlns="http://www.w3.org/2000/svg">
<path d="M17.6429 8.26743H12.2857C10.6091 8.26743 9.25 9.63661 9.25 11.3256C9.25 13.0145 10.6091 14.3837 12.2857 14.3837H14.6071C16.2837 14.3837 17.6429 15.7529 17.6429 17.4419C17.6429 19.1308 16.2837 20.5 14.6071 20.5H3.35714M6.21428 15.4302C6.21428 13.8406 4.9351 12.5519 3.35714 12.5519C1.77919 12.5519 0.5 13.8406 0.5 15.4302V15.5384C0.5 16.1695 0.698502 16.7845 1.06701 17.2949L3.3515 20.4593C3.35429 20.4632 3.36 20.4632 3.36279 20.4593L5.64727 17.2949C6.01578 16.7845 6.21428 16.1695 6.21428 15.5384V15.4302ZM3.90947 14.2454L3.92662 14.2535C4.27242 14.4183 4.52453 14.7332 4.61112 15.1086C4.69868 15.4881 4.60458 15.8904 4.36077 16.1929C4.11964 16.4921 3.75485 16.6691 3.37232 16.6691H3.34197C2.95944 16.6691 2.59464 16.4921 2.35352 16.1929C2.10971 15.8904 2.01561 15.4881 2.10316 15.1086C2.18975 14.7332 2.44186 14.4183 2.78767 14.2535L2.80482 14.2454C3.15446 14.0788 3.55982 14.0788 3.90947 14.2454ZM20.5 3.39849C20.5 1.80887 19.2208 0.5 17.6429 0.5C16.0649 0.5 14.7857 1.80887 14.7857 3.39849C14.7857 4.02339 14.9857 4.6384 15.3561 5.13972L17.6372 8.22766C17.64 8.23147 17.6457 8.23147 17.6485 8.22766L19.9297 5.13972C20.3 4.6384 20.5 4.02339 20.5 3.39849ZM18.1875 2.15136L18.2262 2.16941C18.5631 2.32627 18.8099 2.63018 18.8957 2.9939C18.9838 3.36694 18.8925 3.75998 18.6492 4.05491L18.637 4.06971C18.3999 4.35725 18.048 4.52359 17.6769 4.52359H17.6088C17.2377 4.52359 16.8858 4.35725 16.6487 4.06971L16.6365 4.05491C16.3932 3.75998 16.3019 3.36694 16.39 2.9939C16.4758 2.63018 16.7226 2.32627 17.0595 2.16941L17.0983 2.15136C17.4438 1.99048 17.842 1.99048 18.1875 2.15136Z" stroke="currentColor" stroke-linecap="round"/>
</svg>
