<svg width="21" height="21" viewBox="0 0 21 21" fill="none" xmlns="http://www.w3.org/2000/svg">
<path d="M18.8236 19.5466C18.5034 20.1776 17.8438 20.5695 17.1426 20.4928C16.8412 20.4598 16.5402 20.4194 16.2396 20.3716C12.3229 19.7488 8.70304 17.8972 5.89895 15.082C3.09486 12.2669 1.25046 8.63282 0.630104 4.70063C0.582541 4.39915 0.54236 4.09709 0.509521 3.79474C0.433062 3.09076 0.823458 2.42854 1.45195 2.10705L4.20244 0.700085C5.26693 0.155564 6.55498 0.790737 6.92933 1.92975C7.15638 2.62058 7.42452 3.30037 7.73342 3.96542C7.88821 4.29868 8.0524 4.62644 8.22567 4.94838C8.63588 5.71056 8.35917 6.68815 7.5736 7.04663C6.43267 7.56728 6.16094 9.0717 7.04713 9.96138L10.9995 13.9293C11.8857 14.819 13.3842 14.5462 13.9028 13.4008C14.2796 12.5686 15.3009 12.2673 16.1118 12.683C16.3084 12.7838 16.5071 12.8812 16.7078 12.9751C17.4681 13.3311 18.2478 13.6331 19.0413 13.8807C20.1964 14.2412 20.8521 15.5498 20.3029 16.6319L18.8236 19.5466Z" stroke="currentColor" stroke-linecap="round" stroke-linejoin="round"/>
</svg>
