<svg width="19" height="22" viewBox="0 0 19 22" fill="none" xmlns="http://www.w3.org/2000/svg">
<path d="M7.25001 10.4735L9.50003 12.7177L13.4375 8.79034M9.49997 0.561523C7.17869 1.74851 4.59257 2.37965 1.94902 2.37965C1.59212 2.37965 1.23627 2.36815 0.881973 2.34533C0.424632 4.43182 0.37403 6.60288 0.751478 8.73799C1.42717 12.5602 3.43142 16.0227 6.41222 18.5174C7.36795 19.3173 8.40448 20.0013 9.5 20.5615C10.5955 20.0013 11.632 19.3173 12.5878 18.5174C15.5686 16.0227 17.5728 12.5602 18.2485 8.73799C18.626 6.60288 18.5754 4.43182 18.118 2.34532C17.7637 2.36815 17.4078 2.37965 17.0509 2.37965C14.4074 2.37965 11.8212 1.74851 9.49997 0.561523Z" stroke="currentColor"/>
</svg>
